<?xml version="1.0" encoding="UTF-8"?>
<svg id="Layer_2" xmlns="http://www.w3.org/2000/svg" viewBox="0 0 8.97 8.97">
  <defs>
    <style>
      .cls-1 {
        fill: #8a8a8a;
      }
    </style>
  </defs>
  <g id="Layer_2-2" data-name="Layer_2">
    <path class="cls-1" d="M4.07.09c.26-.12.56-.12.82,0l3.83,1.77c.15.07.24.22.24.38s-.09.31-.24.38l-3.83,1.77c-.26.12-.56.12-.82,0L.24,2.62c-.15-.07-.24-.22-.24-.38s.09-.31.24-.38L4.07.09ZM7.8,3.67l.93.43c.15.07.24.22.24.38s-.09.31-.24.38l-3.83,1.77c-.26.12-.56.12-.82,0L.24,4.87c-.15-.07-.24-.22-.24-.38s.09-.31.24-.38l.93-.43,2.66,1.23c.41.19.88.19,1.29,0l2.66-1.23h0ZM5.13,7.15l2.66-1.23.93.43c.15.07.24.22.24.38s-.09.31-.24.38l-3.83,1.77c-.26.12-.56.12-.82,0L.24,7.11c-.15-.07-.24-.22-.24-.38s.09-.31.24-.38l.93-.43,2.66,1.23c.41.19.88.19,1.29,0h0Z"/>
  </g>
</svg>