<?xml version="1.0" encoding="UTF-8"?>
<svg id="Layer_2" data-name="Layer 2" xmlns="http://www.w3.org/2000/svg" viewBox="0 0 8 7.11">
  <g id="Layer_6" data-name="Layer 6">
    <g>
      <path d="M8,1.19v4.73c0,.23-.12.43-.31.53-.2.09-.43.09-.61-.04l-1.51-1c-.33-.22-.53-.6-.53-1v-1.72c0-.4.2-.78.53-1l1.51-1c.17-.12.41-.13.61-.03.19.09.31.29.31.52Z" style="fill: #b9b9b9;"/>
      <path d="M4.19,6.08l.64.44c0,.23-.12.43-.31.52-.09.05-.19.07-.29.07H1.19c-.65,0-1.19-.53-1.19-1.19V1.19C0,.53.53,0,1.19,0h3.04c.11,0,.2.01.29.07.19.09.31.29.31.52l-.64.44c-.31.21-.48.57-.48.95v3.16c0,.37.17.73.48.95Z" style="fill: #b9b9b9;"/>
    </g>
  </g>
</svg>